<svg width="23" height="33" viewBox="0 0 23 33" fill="none" xmlns="http://www.w3.org/2000/svg">
<rect x="6" width="5" height="5" rx="2.5" fill="#D9D9D9"/>
<rect x="6" y="18" width="5" height="5" rx="2.5" fill="#D9D9D9"/>
<rect y="6" width="5" height="5" rx="2.5" fill="#D9D9D9"/>
<rect y="12" width="5" height="5" rx="2.5" fill="#D9D9D9"/>
<rect x="12" y="6" width="5" height="5" rx="2.5" fill="#D9D9D9"/>
<rect x="15" y="28" width="5" height="5" rx="2.5" fill="#00DC23"/>
<rect x="12" width="5" height="5" rx="2.5" fill="#D9D9D9"/>
<rect x="12" y="18" width="5" height="5" rx="2.5" fill="#D9D9D9"/>
<rect x="6" y="6" width="5" height="5" rx="2.5" fill="#D9D9D9"/>
<rect x="6" y="12" width="5" height="5" rx="2.5" fill="#D9D9D9"/>
<rect x="18" y="6" width="5" height="5" rx="2.5" fill="#D9D9D9"/>
<rect x="18" y="12" width="5" height="5" rx="2.5" fill="#D9D9D9"/>
<rect x="10" y="23" width="3" height="10" rx="1" fill="#D9D9D9"/>
</svg>
